<?xml version='1.0' encoding='utf-8'?>
<svg xmlns="http://www.w3.org/2000/svg" version="1.1" width="600px" height="976px" viewBox="0 0 600 976"> <g id="layer1"> <g style="fill:rgb(0,0,0); fill-opacity:1.0; stroke-linejoin: miter"> <path d="M360.44922,577.48785C360.44513,577.49207,360.3895,577.5007,360.32355,577.50525C360.24112,577.512,360.1629,577.5373,360.06223,577.5896C359.98413,577.62933,359.9019,577.66284,359.88126,577.663C359.86066,577.66315,359.84012,577.67773,359.83197,577.6943C359.82593,577.7129,359.80338,577.7337,359.78488,577.74207C359.70468,577.77563,359.6001,577.8609,359.53265,577.948C359.49384,577.9998,359.45087,578.0517,359.4407,578.0662C359.37317,578.1409,359.2671,578.30664,359.26727,578.3335C359.2674,578.35,359.25928,578.3686,359.25104,578.3728C359.23047,578.38116,359.0834,578.5843,359.08356,578.6049C359.08362,578.6111,359.05917,578.6567,359.0286,578.7043L358.97144,578.7913L358.9747,579.2594L358.978,579.72754L358.90018,579.8023C358.82437,579.87506,358.82236,579.8792,358.83752,579.98425C358.84412,580.04407,358.86523,580.11395,358.87985,580.1387C358.89655,580.16534,358.90942,580.23944,358.9099,580.3096C358.91083,580.4416,358.9487,580.54236,359.00452,580.5647C359.0231,580.57074,359.08298,580.57654,359.1366,580.5762C359.2356,580.57544,359.2356,580.57544,359.27335,580.67004C359.30695,580.7564,359.30945,580.8162,359.30026,581.27405C359.28635,581.93207,359.26166,582.23126,359.2128,582.3265C359.1518,582.44653,358.9551,582.63556,358.86664,582.66095C358.82343,582.67365,358.77612,582.69666,358.7618,582.7132C358.74747,582.72986,358.7249,582.74445,358.71255,582.7445C358.69812,582.7446,358.66116,582.77374,358.62842,582.807C358.55472,582.88586,358.40894,582.9797,358.30612,583.0175C358.2629,583.0323,358.228,583.05316,358.22806,583.0614C358.22812,583.06964,358.20755,583.078,358.1828,583.0782C358.13745,583.0785,358.0304,583.10815,357.9399,583.14795C357.91113,583.1606,357.79166,583.17786,357.6721,583.18494C357.55252,583.19403,357.38568,583.2199,357.30127,583.2432C357.186,583.27496,357.10565,583.28375,356.9798,583.2764C356.8168,583.2693,356.81476,583.26935,356.74924,583.33575C356.71237,583.3711,356.68378,583.41254,356.68387,583.42694C356.68414,583.4661,356.4463,583.6616,356.364,583.6911C356.32492,583.70374,356.07288,583.93243,355.9152,584.09436C355.75958,584.2543,355.61868,584.4532,355.51495,584.66016C355.48038,584.7305,355.44373,584.79474,355.43344,584.801C355.4232,584.80725,355.4151,584.83,355.41525,584.85266C355.41553,584.89185,355.41147,584.90216,355.35046,585.02637C355.33215,585.0595,355.31195,585.1215,355.304,585.16077C355.28403,585.2578,355.24115,585.3179,355.1121,585.4405C355.05063,585.4966,354.983,585.55896,354.9646,585.5797C354.94614,585.59845,354.91125,585.6193,354.88657,585.6277C354.8639,585.63403,354.83932,585.6569,354.8333,585.6796C354.82724,585.70026,354.79858,585.73145,354.77194,585.7502C354.62003,585.8502,354.06552,586.477,354.066,586.5471C354.06607,586.55536,354.02725,586.6071,353.9802,586.6611C353.93106,586.713,353.88403,586.76904,353.87177,586.7835C353.77982,586.9059,353.60605,587.1257,353.58554,587.14233C353.5179,587.2026,353.37128,587.4635,353.3717,587.5253C353.372,587.57074,353.32736,587.67413,353.26007,587.78394C353.23154,587.8295,353.203,587.8813,353.19693,587.8978C353.1909,587.9143,353.17462,587.9495,353.16245,587.97644C353.15024,588.0033,353.14056,588.09204,353.1391,588.1745C353.1399,588.29004,353.15063,588.3477,353.1883,588.42584C353.27408,588.60046,353.4078,588.8512,353.4579,588.9333C353.485,588.97437,353.5186,589.0587,353.53137,589.1184C353.54416,589.1761,353.5756,589.25214,353.59854,589.28503C353.62146,589.3178,353.67157,589.4061,353.7092,589.4801C353.7489,589.5541,353.78647,589.6198,353.79684,589.6259C353.8051,589.6321,353.82397,589.66907,353.84073,589.7081C353.89948,589.8541,354.13675,590.1597,354.386,590.4117C354.49194,590.52026,354.6166,590.65137,354.66235,590.70667C354.76422,590.8256,354.83487,590.89935,354.89084,590.9381C354.91364,590.9545,354.98428,591.03235,355.04468,591.11237C355.1071,591.1903,355.21725,591.31323,355.28784,591.3829C355.36053,591.4546,355.4208,591.52014,355.42087,591.5284C355.4211,591.5634,355.60788,591.7291,355.72177,591.7964C355.8357,591.86365,355.8398,591.8657,356.18845,591.87976C356.48758,591.8921,356.55157,591.902,356.6096,591.9366C356.72556,592.008,356.73184,592.02234,356.70404,592.17725C356.69223,592.2557,356.67426,592.33624,356.6641,592.35895C356.64178,592.4107,356.62592,592.5016,356.6066,592.68933C356.59683,592.76776,356.5729,592.8855,356.5486,592.9476C356.5102,593.0551,356.47806,593.18317,356.45828,593.2988C356.4523,593.32776,356.4244,593.4702,356.3945,593.6189C356.36462,593.76556,356.33072,593.9287,356.32074,593.9803C356.30487,594.0671,356.29688,594.1063,356.24713,594.36237C356.23514,594.4181,356.21326,594.52966,356.1973,594.6102C356.18137,594.6887,356.15353,594.83734,356.1357,594.9406C356.11783,595.04175,356.08597,595.2008,356.06598,595.29175C356.04395,595.38257,356.01434,595.5725,355.99677,595.71497C355.97922,595.85736,355.95547,596.0019,355.9454,596.03705C355.93536,596.07214,355.92755,596.1382,355.9279,596.1856C355.92856,596.2805,355.87335,596.6418,355.85297,596.6749C355.84686,596.6853,355.8351,596.77814,355.82553,596.88135C355.80862,597.11456,355.77936,597.35187,355.7533,597.4593C355.7092,597.64105,355.66534,597.858,355.6496,597.96533C355.6221,598.15936,355.59833,598.2998,355.56458,598.4815C355.51483,598.7438,355.48712,598.90894,355.43802,599.25574C355.4282,599.3259,355.41428,599.40027,355.40613,599.42096C355.40015,599.44366,355.38626,599.52216,355.3744,599.5965C355.36255,599.6708,355.34265,599.7761,355.33273,599.834C355.32077,599.8897,355.30908,599.9888,355.3095,600.0506L355.30618,600.1641L355.37842,600.1698C355.4692,600.1753,355.73358,600.2333,355.76056,600.2537C355.77295,600.26184,355.81018,600.274,355.84323,600.2799C355.97742,600.3038,356.02908,600.3199,356.04367,600.34247C356.09784,600.4205,355.90656,601.3705,355.78467,601.6353C355.75015,601.7098,355.71167,601.81116,355.69968,601.86273C355.68558,601.9144,355.6593,601.98883,355.63895,602.02814C355.62067,602.06744,355.58014,602.17084,355.5498,602.2557C355.51944,602.3404,355.48096,602.43555,355.4667,602.4645C355.4504,602.49347,355.42816,602.55347,355.41818,602.5989C355.40607,602.6423,355.38403,602.73114,355.3659,602.7931C355.33163,602.9068,355.32578,602.9522,355.26907,603.3919C355.24167,603.60034,355.1962,604.1761,355.14584,604.93945C355.13644,605.06946,355.12494,605.1912,355.11887,605.20776C355.10672,605.23676,355.07385,605.8474,355.0312,606.817C355.0205,607.0604,355.00363,607.29974,354.99365,607.3473C354.98367,607.3948,354.97644,607.5392,354.97736,607.66705C354.97983,608.0218,354.9465,608.2695,354.86945,608.4577C354.85526,608.4907,354.83502,608.54456,354.82285,608.5735C354.81274,608.6024,354.79678,608.67883,354.78897,608.7428C354.77338,608.8687,354.7672,608.8729,354.66382,608.83655C354.59146,608.81226,354.41434,608.84033,354.3013,608.8989C354.23965,608.93024,354.20923,609.0026,354.24243,609.0354C354.29852,609.0907,354.2561,609.2189,354.13947,609.34753C354.119,609.37036,354.1027,609.39526,354.10275,609.4035C354.1028,609.41174,354.09055,609.43243,354.0783,609.44696C354.06396,609.4615,354.0374,609.50085,354.02118,609.536C354.0049,609.56915,353.98657,609.60223,353.98044,609.6085C353.9743,609.61475,353.94986,609.66034,353.9234,609.71204C353.89902,609.76373,353.85425,609.8445,353.82776,609.89417C353.79922,609.9418,353.77692,609.9956,353.77704,610.0121C353.77725,610.043,353.68353,610.2087,353.65482,610.2295C353.6466,610.2357,353.62622,610.26886,353.6079,610.302C353.59167,610.33716,353.55896,610.38275,353.53436,610.40356C353.5098,610.42645,353.4914,610.4513,353.49146,610.45953C353.4918,610.5111,353.2215,610.7852,353.00613,610.9517C352.80515,611.1078,352.73557,611.18665,352.62772,611.3916C352.4588,611.71454,352.42856,611.81366,352.43027,612.055L352.4318,612.27356L352.5376,612.3615L352.64337,612.44946L353.2153,612.54443C354.0288,612.67896,354.0123,612.6791,354.19733,612.5973C354.21994,612.58685,354.28998,612.57404,354.35385,612.5653C354.4919,612.5499,354.6399,612.4808,354.75885,612.381C354.847,612.3061,355.47955,611.92834,355.5187,611.9281C355.52902,611.92804,355.5845,611.8967,355.6399,611.8572C355.6953,611.8197,355.8083,611.75696,355.89258,611.7193C356.06323,611.6438,356.2561,611.50226,356.32553,611.40485C356.36432,611.3489,356.3683,611.32825,356.35117,611.23553C356.3145,611.009,356.33194,610.55304,356.38272,610.44543C356.41522,610.3751,356.384,610.0433,356.33374,609.9323C356.31284,609.8891,356.29242,609.62524,356.2818,609.2892C356.27646,609.116,356.2701,609.0933,356.22028,609.0421C356.1912,609.0114,356.1619,608.95593,356.1555,608.923C356.14905,608.888,356.13632,608.8344,356.1278,608.80145C356.11935,608.7706,356.12296,608.69635,356.13696,608.6364C356.14896,608.5786,356.18082,608.41547,356.21072,608.27295C356.2386,608.1305,356.27454,607.95905,356.2926,607.89087C356.30865,607.8227,356.3266,607.73804,356.33258,607.70496C356.33847,607.66986,356.35477,607.6367,356.36914,607.6284C356.3835,607.62006,356.40176,607.57666,356.40768,607.53534C356.4255,607.43414,356.48187,607.2358,356.50232,607.2088C356.5207,607.18396,356.60315,606.88226,356.61484,606.7894C356.6208,606.7522,356.6329,606.7171,356.64316,606.7108C356.65344,606.7045,356.6615,606.6777,356.66132,606.6509C356.6611,606.6241,356.66916,606.59515,356.6815,606.58887C356.69177,606.58264,356.70187,606.5537,356.7017,606.52686C356.7015,606.50006,356.7135,606.44635,356.72974,606.4091C356.74597,606.3718,356.7702,606.2995,356.78223,606.24786C356.7963,606.1962,356.81442,606.1363,356.8246,606.1135C356.83475,606.09076,356.8671,605.99774,356.89532,605.9068C356.96594,605.6856,357.05338,605.5076,357.2166,605.25903C357.29007,605.14716,357.35123,605.04364,357.35114,605.03125C357.35104,605.0189,357.36328,605.0002,357.37973,604.9918C357.45163,604.9501,357.63535,604.3899,357.6341,604.2126C357.63385,604.1754,357.6418,604.13824,357.65204,604.1258C357.6623,604.1154,357.67416,604.04114,357.67978,603.9627C357.7098,603.53973,357.7339,603.15186,357.75992,602.7454C357.79318,602.1986,357.80872,602.0563,357.85104,601.91986C357.86716,601.862,357.88715,601.7752,357.89508,601.72565C357.90295,601.674,357.9272,601.60175,357.94757,601.5644C357.96997,601.5251,357.98615,601.48376,357.98608,601.4714C357.98596,601.459,358.0164,601.38245,358.055,601.30176C358.09363,601.22107,358.1383,601.12177,358.1545,601.08246C358.21945,600.9273,358.27423,600.80115,358.28845,600.77216C358.30676,600.739,358.33978,600.7388,358.88437,600.75977C359.1484,600.7681,359.16284,600.76807,359.2079,600.7245C359.24887,600.685,359.2569,600.6519,359.2662,600.5096C359.26968,600.41876,359.28317,600.2826,359.29504,600.20825C359.30484,600.134,359.32056,600.0266,359.32843,599.9709C359.3342,599.9131,359.34824,599.8573,359.35645,599.8469C359.3646,599.83453,359.37872,599.789,359.38458,599.7436C359.39252,599.69824,359.4166,599.6052,359.4388,599.53906C359.45895,599.4709,359.4769,599.3821,359.47662,599.3409C359.47632,599.2996,359.4944,599.2293,359.5147,599.18384C359.53503,599.1404,359.5673,599.03705,359.5853,598.95856C359.63333,598.75195,359.6595,598.6569,359.6899,598.58655C359.72845,598.4935,359.7841,598.192,359.79324,598.02905C359.7968,597.9486,359.80865,597.8763,359.8189,597.8659C359.82913,597.8535,359.83716,597.82043,359.8369,597.7895C359.83673,597.75854,359.8468,597.7255,359.85706,597.7192C359.86942,597.71295,359.8775,597.69226,359.87738,597.6737C359.87726,597.6572,359.8893,597.61383,359.90558,597.5787C359.94412,597.48553,359.97824,597.35126,359.9778,597.2894C359.9776,597.26056,359.98767,597.22955,359.99792,597.22327C360.01028,597.217,360.01828,597.18195,360.01804,597.1489C360.0178,597.1139,360.0278,597.06836,360.03796,597.04565C360.05832,597.0084,360.07834,596.9257,360.11813,596.7172C360.12808,596.6655,360.14203,596.59326,360.15,596.5561C360.15793,596.51276,360.1743,596.4899,360.19904,596.48975C360.23615,596.4895,360.2466,596.51215,360.31198,596.7158C360.33304,596.7775,360.3562,596.8475,360.3667,596.8701C360.38974,596.9236,360.40887,597.00793,360.42847,597.1481C360.4437,597.2614,360.46063,597.3273,360.54086,597.5907C360.62738,597.8747,360.64,597.90967,360.747,598.1667C360.75748,598.1893,360.7703,598.249,360.77887,598.29846C360.7919,598.39325,360.8615,598.61755,360.89496,598.67505C360.90744,598.69556,360.91595,598.7306,360.91608,598.7512C360.91626,598.7739,360.92673,598.7985,360.9371,598.8047C360.94952,598.8108,360.95795,598.8355,360.9581,598.85815C360.95825,598.8788,360.96674,598.91376,360.9772,598.9343C361.088,599.15216,361.13638,599.28174,361.1578,599.3991C361.16638,599.4424,361.2044,599.572,361.24646,599.6872C361.29276,599.8189,361.331,599.98157,361.3527,600.13196C361.3897,600.4101,361.42526,600.48,361.55142,600.53064C361.60104,600.5509,361.65485,600.57324,361.6714,600.58136C361.68796,600.59155,361.711,600.643,361.7217,600.69855C361.73444,600.75415,361.74924,600.8035,361.75754,600.80963C361.76584,600.8158,361.80768,600.9001,361.84958,600.9946C361.8915,601.09125,361.93335,601.17755,361.9458,601.1878C361.95618,601.20013,361.96463,601.2228,361.96475,601.24133C361.96487,601.2599,361.98376,601.30927,362.00677,601.35443C362.02975,601.39966,362.04865,601.4428,362.04874,601.4531C362.0488,601.46344,362.06354,601.5046,362.08237,601.5457C362.1473,601.6896,362.15155,601.70404,362.16245,601.78644C362.1689,601.8318,362.1884,601.95746,362.2077,602.0646C362.2249,602.1717,362.252,602.50555,362.26443,602.8066C362.30154,603.6828,362.33682,604.01044,362.4172,604.2965C362.4405,604.383,362.46182,604.4818,362.46207,604.5169C362.4623,604.54987,362.47284,604.5828,362.48322,604.5889C362.4956,604.5951,362.504,604.6156,362.50412,604.63214C362.5042,604.6486,362.5692,604.79663,362.65082,604.96106C362.73236,605.1234,362.7973,605.2652,362.79736,605.2755C362.79745,605.2858,362.80576,605.29816,362.8161,605.3022C362.8306,605.30835,362.8829,605.41724,363.0003,605.6886C363.0171,605.7277,363.0401,605.77704,363.05054,605.79553C363.061,605.8161,363.06946,605.8408,363.06952,605.85315C363.0696,605.86346,363.09268,605.921,363.1199,605.98065C363.17856,606.11224,363.2038,606.1801,363.2398,606.316C363.25256,606.3716,363.27774,606.4333,363.29025,606.4497C363.3048,606.46606,363.3216,606.5072,363.328,606.5422C363.33444,606.5752,363.34933,606.64105,363.36203,606.68634C363.37473,606.73157,363.40234,606.8469,363.42572,606.94366C363.44907,607.04047,363.47662,607.14545,363.48923,607.18036C363.4998,607.2133,363.5188,607.2792,363.5315,607.32446C363.5442,607.36975,363.56955,607.45825,363.5865,607.51996C363.60547,607.5817,363.63083,607.6702,363.64355,607.7155C363.65622,607.7608,363.67313,607.81635,363.68152,607.839C363.692,607.86163,363.71112,607.9439,363.7241,608.0243C363.737,608.1026,363.75635,608.2138,363.76706,608.2715C363.77777,608.3271,363.7934,608.49603,363.80063,608.6466L363.81696,608.9166L363.74127,609.0017C363.66553,609.0848,363.66556,609.09094,363.67877,609.2063C363.68967,609.29083,363.6839,609.3527,363.66168,609.4168C363.63135,609.5016,363.61752,609.5904,363.57242,609.92267C363.52136,610.2881,363.48145,610.476,363.4386,610.5444C363.39578,610.61273,363.36307,610.94916,363.39252,611.02936C363.40515,611.0664,363.41803,611.1385,363.4184,611.19006C363.4237,611.3591,363.44254,611.3961,363.56906,611.49835C363.66653,611.5781,363.7286,611.6086,363.90634,611.66095C364.02414,611.6951,364.19366,611.75586,364.28055,611.79443C364.3654,611.833,364.46255,611.8653,364.49554,611.86505C364.53473,611.8648,364.55542,611.875,364.55557,611.8956C364.5557,611.9122,364.57022,611.92645,364.58673,611.92633C364.6053,611.9262,364.61777,611.94464,364.618,611.97766C364.61823,612.0086,364.63074,612.0291,364.64725,612.029C364.66376,612.0289,364.68033,612.0432,364.68872,612.05963C364.695,612.0762,364.71368,612.09045,364.73224,612.0903C364.74872,612.09015,364.76318,612.09625,364.76328,612.10657C364.76334,612.11896,364.8068,612.1393,364.93915,612.18994C364.96188,612.2001,365.03632,612.2222,365.1045,612.2424C365.1727,612.26044,365.24503,612.2847,365.26367,612.29486C365.28436,612.30505,365.32773,612.313,365.36072,612.31274C365.39578,612.3125,365.42883,612.3205,365.43512,612.3329C365.44138,612.3431,365.48477,612.3531,365.53012,612.3528C365.63943,612.352,365.79025,612.39014,365.81937,612.42505C365.83807,612.4475,365.91028,612.45325,366.1454,612.4495C366.48355,612.44507,366.6999,612.4147,366.76135,612.3586C366.78186,612.3399,366.8148,612.3273,366.8313,612.3333C366.883,612.3536,366.95386,612.1634,366.95276,612.0087C366.95404,611.89734,366.9519,611.8891,366.9057,611.7657C366.891,611.7266,366.86752,611.61536,366.85446,611.51855C366.83932,611.4217,366.81802,611.32294,366.8034,611.2983C366.7888,611.2736,366.7782,611.2345,366.77805,611.2118C366.77786,611.1871,366.7695,611.1686,366.75714,611.1687C366.74683,611.16876,366.73642,611.15436,366.7363,611.1379C366.73618,611.12134,366.6925,611.06805,366.6406,611.0189C366.2566,610.669,366.1132,610.507,366.1126,610.42456C366.11246,610.40186,366.1349,610.3667,366.16357,610.34375C366.221,610.29803,366.22122,610.329,366.16904,609.94775C366.15164,609.81793,366.15128,609.76227,366.16562,609.7519C366.1964,609.7331,366.19705,609.52893,366.16678,609.327C366.15375,609.2364,366.13626,609.09625,366.1254,609.018C366.11,608.8758,366.06998,608.76056,366.0349,608.7608C366.02667,608.76086,366.0183,608.74445,366.0182,608.7238C366.018,608.7012,365.9992,608.6683,365.97638,608.64777C365.9328,608.6089,365.91968,608.5059,365.9546,608.483C365.96695,608.4767,365.97467,608.4065,365.97415,608.3302C365.9736,608.2539,365.98294,608.1115,365.99258,608.0166C366.02948,607.69055,366.05283,607.4924,366.0706,607.37885C366.114,607.1021,366.15152,606.86475,366.16946,606.77386C366.18143,606.7181,366.18915,606.6417,366.18887,606.6046C366.1886,606.5654,366.20245,606.4808,366.22058,606.4147C366.23868,606.3485,366.26462,606.2308,366.2765,606.1544C366.29227,606.0532,366.31046,606.0036,366.34332,605.97864C366.372,605.95575,366.39435,605.90405,366.40823,605.8297C366.42017,605.76776,366.44415,605.6562,366.4622,605.58185C366.47815,605.50745,366.49612,605.42487,366.50214,605.39594C366.50812,605.36707,366.5202,605.3257,366.53033,605.303C366.55264,605.24915,366.56253,605.18726,366.6133,604.7847C366.65436,604.4627,366.65414,604.42975,366.62506,603.81537C366.5963,603.24225,366.59564,603.1495,366.62476,602.88934C366.6694,602.491,366.67737,602.4477,366.69788,602.43304C366.70813,602.4268,366.7162,602.39996,366.71597,602.3711C366.7158,602.3422,366.7258,602.3009,366.73596,602.27814C366.7482,602.2575,366.76633,602.19543,366.77832,602.1417C366.78824,602.086,366.8083,602.0054,366.8183,601.95996C366.9125,601.5716,366.9575,601.2228,366.99197,600.5564C367.01593,600.152,367.03897,599.90643,367.0787,599.6896C367.09653,599.58636,367.11633,599.4666,367.1222,599.4212C367.126,599.3758,367.13797,599.32,367.14813,599.29724C367.1583,599.27454,367.17026,599.21875,367.17407,599.17334C367.17993,599.1279,367.19775,599.02466,367.21576,598.9462C367.2718,598.7004,367.2898,598.6198,367.30768,598.52277C367.31555,598.4712,367.34747,598.3183,367.37747,598.182C367.40744,598.04565,367.43533,597.9053,367.44128,597.8722C367.44516,597.83716,367.4572,597.7916,367.46738,597.7689C367.47754,597.74615,367.48947,597.6863,367.49323,597.6347C367.49905,597.58307,367.5168,597.46747,367.53473,597.3766C367.55267,597.28577,367.57245,597.1701,367.57828,597.1185C367.594,597.0029,367.6284,596.9119,367.65933,596.9117C367.71503,596.9113,367.8642,597.0093,367.9701,597.1137C368.0573,597.1997,368.11154,597.28595,368.22864,597.5181C368.30817,597.6805,368.3752,597.8265,368.37534,597.84503C368.37546,597.8616,368.38586,597.8759,368.39615,597.8758C368.40854,597.87573,368.4169,597.89215,368.41705,597.9128C368.41718,597.9334,368.4256,597.9581,368.43396,597.9704C368.44434,597.98065,368.47363,598.0403,368.4988,598.102C368.568,598.2623,368.6036,598.3446,368.65805,598.4618C368.6832,598.5173,368.72714,598.60974,368.75232,598.6673C368.95966,599.11957,369.06436,599.3436,369.20874,599.64575C369.32178,599.8842,369.38046,600.01373,369.38055,600.02405C369.38058,600.0302,369.39737,600.0734,369.4204,600.12274C369.44135,600.17004,369.4812,600.26465,369.50644,600.3325C369.53375,600.4004,369.56525,600.4826,369.57993,600.5176C369.59457,600.5505,369.61566,600.61633,369.63043,600.6616C369.64517,600.70685,369.67886,600.8035,369.7062,600.8776C369.73148,600.95166,369.76517,601.05255,369.77997,601.10394C369.79477,601.1554,369.81372,601.2151,369.82214,601.2377C369.83057,601.2603,369.85376,601.3344,369.8728,601.4023C369.8939,601.4702,369.91708,601.5444,369.9255,601.56696C369.93597,601.58954,369.96964,601.6863,370.00125,601.78296C370.0939,602.05664,370.11905,602.11005,370.41986,602.65656C370.55566,602.90717,370.62546,603.1541,370.70352,603.696C370.72516,603.84015,370.7706,604.14716,370.8159,604.4273C370.8397,604.5901,370.86737,604.70953,370.90967,604.85974C370.92868,604.9277,370.9499,605.008,370.9563,605.0409C370.9627,605.0718,370.97525,605.0965,370.98557,605.0964C370.99588,605.0963,371.00427,605.1189,371.0045,605.14777C371.0047,605.17664,371.0132,605.21576,371.02365,605.2363C371.04245,605.2713,371.11996,605.4398,371.19748,605.6105C371.22052,605.66187,371.25192,605.7276,371.26862,605.75635C371.3146,605.8447,371.38574,605.9866,371.41086,606.04205C371.42343,606.07086,371.45477,606.12836,371.47983,606.1695C371.50693,606.2125,371.52792,606.264,371.52805,606.2846C371.5282,606.30524,371.55115,606.34424,371.5802,606.37085C371.60925,606.39746,371.6322,606.4344,371.6324,606.455C371.6325,606.47565,371.6409,606.4962,371.65128,606.5023C371.66162,606.5085,371.6742,606.53925,371.6806,606.5702C371.68497,606.60315,371.7102,606.67303,371.73328,606.7307C371.75635,606.7862,371.79834,606.889,371.82355,606.9569C371.8467,607.0248,371.88657,607.1193,371.90753,607.1687C371.93057,607.2181,371.9641,607.2962,371.98303,607.3435C372.00192,607.39075,372.03326,607.45245,372.052,607.4812C372.0708,607.50995,372.10226,607.5881,372.12546,607.65594C372.1465,607.7239,372.1718,607.80206,372.18442,607.8309C372.22638,607.93365,372.2369,607.9666,372.26016,608.0489C372.2729,608.09625,372.28363,608.156,372.2838,608.1808C372.284,608.2076,372.2966,608.24457,372.31116,608.261C372.32574,608.2795,372.35086,608.33496,372.36566,608.3864C372.38046,608.43787,372.40152,608.4975,372.4099,608.52014C372.4393,608.5942,372.47324,608.73004,372.47354,608.7734C372.47372,608.796,372.44742,608.86633,372.41486,608.9284C372.35583,609.0423,372.35587,609.0444,372.34677,609.5126C372.34033,609.7724,372.332,610.0571,372.32648,610.1479L372.31522,610.30884L372.4261,610.5267C372.53268,610.7322,372.54935,610.7526,372.79007,610.9696C372.92914,611.0944,373.09296,611.2252,373.153,611.2578C373.2151,611.2883,373.26895,611.3209,373.2752,611.3291C373.28143,611.33527,373.41367,611.37146,373.56857,611.40753C373.76895,611.45557,373.87427,611.46924,373.92987,611.46063C373.9731,611.4521,374.08646,611.4369,374.1833,611.4259C374.55417,611.37994,374.69836,611.3563,374.69824,611.3398C374.69818,611.32947,374.7249,611.3169,374.75784,611.3084C374.84845,611.2892,374.9324,611.20197,374.9155,611.1464C374.87543,611.01886,374.8577,610.8437,374.87805,610.8043C374.93506,610.6967,374.86975,610.5033,374.7391,610.397C374.625,610.3029,374.3218,610.0081,374.27185,609.94037C374.25104,609.91376,374.23428,609.8747,374.23413,609.85614C374.234,609.8375,374.2194,609.8108,374.2028,609.7965C374.1862,609.78217,374.15912,609.7473,374.14447,609.7165C374.12778,609.68774,374.09015,609.6158,374.05884,609.56036C374.00662,609.47003,374.0002,609.43494,373.99908,609.27203C373.99835,609.16895,373.98737,609.0741,373.97696,609.0598C373.96445,609.0454,373.96005,609.0043,373.96597,608.965C373.9778,608.8906,373.95276,608.8496,373.89297,608.85004C373.86,608.8503,373.8557,608.83167,373.85486,608.70795C373.85388,608.57184,373.8497,608.5616,373.77698,608.4858C373.73337,608.44073,373.65256,608.38354,373.59665,608.3551C373.50354,608.3103,373.49106,608.29395,373.45734,608.1932C373.43835,608.12933,373.40582,607.9047,373.38574,607.6884C373.36566,607.472,373.34125,607.2267,373.33035,607.1422C373.31943,607.0578,373.2997,606.89087,373.2865,606.7713C373.27332,606.65186,373.25354,606.4849,373.23853,606.40045C373.22556,606.316,373.2184,606.17993,373.22406,606.1015C373.22968,606.02106,373.22458,605.88293,373.21158,605.79224C373.20062,605.7016,373.18103,605.5532,373.17212,605.4625C373.1612,605.3719,373.1436,605.2132,373.1305,605.1123C373.11948,605.0092,373.09753,604.8237,373.08633,604.70013C373.05984,604.45276,373.02954,604.2468,372.97598,603.9585C372.9352,603.73395,372.87152,603.47455,372.84647,603.4293C372.836,603.40875,372.82748,603.3696,372.8273,603.34283C372.8271,603.31396,372.8186,603.28516,372.8062,603.2791C372.79587,603.27295,372.78537,603.2483,372.78522,603.2256C372.78494,603.1885,372.67386,602.9315,372.52524,602.6211C372.46457,602.4978,372.38702,602.3189,372.32614,602.1688C372.29468,602.0927,372.26508,601.9857,372.21188,601.75714C372.16092,601.5492,372.1396,601.44415,372.09036,601.19086C372.02838,600.8799,371.99466,600.4862,371.95505,599.542C371.93045,598.975,371.90814,598.74,371.85434,598.4187C371.835,598.30536,371.80917,598.15295,371.79834,598.0788C371.7269,597.59467,371.6905,597.399,371.61603,597.0799C371.599,596.9995,371.57556,596.8987,371.56494,596.85333C371.55432,596.80804,371.53522,596.7257,371.52448,596.6701C371.51172,596.6166,371.4821,596.5054,371.45883,596.4231C371.43555,596.34283,371.40393,596.2399,371.3912,596.19464C371.33206,595.9929,371.26047,595.781,371.24384,595.76465C371.2355,595.7523,371.2271,595.73175,371.227,595.71735C371.22693,595.7029,371.1954,595.6227,371.15775,595.54254C371.12003,595.46027,371.07602,595.35956,371.0613,595.3205C371.04657,595.28143,371.0214,595.21967,371.00674,595.1868C370.925,594.9976,370.86362,594.7774,370.81635,594.50757C370.79706,594.4046,370.76303,594.25635,370.7398,594.17816C370.71655,594.0979,370.68695,593.997,370.6743,593.9517C370.6235,593.76855,370.54144,593.5361,370.506,593.48474C370.4852,593.45605,370.4685,593.4253,370.46844,593.41907C370.4684,593.4129,370.4453,593.3594,370.41605,593.29974C370.38675,593.24225,370.3636,593.1702,370.3634,593.14343C370.36307,593.098,370.36923,593.09393,370.43118,593.10583C370.68103,593.15356,370.81906,593.12994,370.9132,593.0261C370.93777,593.0012,371.0238,592.92017,371.10577,592.8454C371.18774,592.7705,371.29837,592.6666,371.3496,592.61475C371.40283,592.5607,371.46436,592.5108,371.48904,592.50446C371.5117,592.4961,371.59775,592.4171,371.67758,592.32996C371.7574,592.2427,371.8822,592.1057,371.9559,592.02686C372.02753,591.948,372.08682,591.8713,372.0867,591.8568C372.08664,591.8444,372.11728,591.80505,372.1562,591.7697C372.2218,591.71155,372.4545,591.37164,372.45425,591.33453C372.4542,591.3242,372.47256,591.2993,372.49512,591.27856C372.51764,591.2578,372.536,591.22876,372.5359,591.2123C372.5357,591.1855,372.5784,591.0986,372.71082,590.8646C372.7495,590.79626,372.80444,590.69073,372.835,590.63275C372.86343,590.57275,372.9043,590.5188,372.9249,590.5125C372.94547,590.50616,372.98837,590.45013,373.023,590.38806C373.07797,590.2887,373.086,590.2556,373.08502,590.1195C373.08386,589.9546,373.03326,589.79407,372.95636,589.70795C372.93555,589.6854,372.91257,589.6423,372.9062,589.6114C372.8977,589.5805,372.87894,589.55176,372.8645,589.5478C372.85,589.5416,372.83118,589.50055,372.8226,589.45734C372.81406,589.41406,372.79514,589.36475,372.77853,589.3483C372.7266,589.29504,372.6246,589.15967,372.62448,589.1431C372.62442,589.1349,372.60358,589.1041,372.5786,589.0754C372.55164,589.0467,372.5121,588.99756,372.4892,588.9689C372.4663,588.93805,372.4372,588.90314,372.4268,588.8909C372.4143,588.8765,372.381,588.8335,372.3539,588.7945C372.32684,588.7555,372.2728,588.6919,372.23535,588.6509C372.1107,588.51575,372.06287,588.4603,372.06277,588.4459C372.0627,588.4397,372.00244,588.37415,371.92975,588.3004C371.85706,588.22876,371.78845,588.1488,371.77383,588.1221C371.76126,588.0975,371.73636,588.07697,371.71988,588.0771C371.70544,588.0772,371.66193,588.0445,371.62244,588.00354C371.58502,587.9626,371.49573,587.87244,371.42508,587.8008C371.35242,587.73114,371.2942,587.66144,371.2941,587.64905C371.29395,587.6264,371.22723,587.5217,371.17734,587.4684C371.1628,587.4541,371.11902,587.3843,371.07935,587.3144C371.0125,587.1973,370.92722,587.0887,370.80048,586.95544C370.77347,586.92883,370.74432,586.8899,370.73178,586.8673C370.71924,586.84467,370.69644,586.8263,370.67996,586.8264C370.66345,586.82654,370.64893,586.8142,370.6488,586.7977C370.6487,586.7812,370.63,586.7608,370.6052,586.7547C370.58246,586.74664,370.5492,586.7098,370.53036,586.6707C370.51154,586.6337,370.4762,586.5948,370.45554,586.58875C370.4328,586.5806,370.36438,586.5296,370.3062,586.4702C370.19202,586.3596,369.9391,586.1717,369.9061,586.1719C369.89374,586.172,369.88126,586.15967,369.875,586.14325C369.86655,586.1206,369.7799,586.11505,369.47052,586.10895C369.21063,586.1066,369.06827,586.0953,369.05374,586.08093C369.02673,586.0543,369.02417,585.9822,369.04187,585.5696C369.0596,585.1549,368.96878,583.96765,368.8941,583.61145C368.88336,583.5537,368.86404,583.4446,368.85117,583.36835C368.8403,583.2901,368.81894,583.18915,368.8062,583.1418C368.79352,583.0945,368.77444,583.0183,368.76175,582.97296C368.73636,582.8804,368.70685,582.78784,368.68167,582.7261C368.67117,582.7035,368.64807,582.6418,368.625,582.5883C368.60397,582.5328,368.581,582.4896,368.57275,582.4897C368.56244,582.48975,368.55612,582.47125,368.55597,582.4486C368.5558,582.4259,368.51398,582.3437,368.46185,582.2636C368.40973,582.18353,368.36804,582.1158,368.36798,582.1096C368.36792,582.10547,368.30957,582.0193,368.24084,581.9207C368.11377,581.7402,367.9642,581.58655,367.91882,581.58685C367.9044,581.587,367.88992,581.58093,367.8857,581.5706C367.88364,581.5624,367.8132,581.5216,367.7304,581.4789C367.61243,581.41986,367.5608,581.40375,367.4721,581.40436C367.41025,581.40485,367.34433,581.41766,367.3197,581.4343C367.29712,581.451,367.2416,581.472,367.19626,581.4785C367.153,581.48706,367.10364,581.506,367.08725,581.5185C367.06882,581.533,366.94922,581.5421,366.7595,581.54346C366.53885,581.545,366.4585,581.55176,366.45242,581.5704C366.44632,581.58484,366.4299,581.5973,366.41342,581.5974C366.38043,581.59766,366.15515,581.82196,366.1021,581.90894C366.08377,581.938,366.03476,582.0084,365.99188,582.06647C365.94897,582.1245,365.91434,582.1804,365.9144,582.1928C365.9145,582.2052,365.8982,582.23627,365.87778,582.26324C365.8451,582.3067,365.8045,582.39984,365.75186,582.5404C365.7134,582.64386,365.6157,582.82806,365.5748,582.8758C365.54816,582.9028,365.52777,582.9379,365.52786,582.9503C365.52795,582.9648,365.5158,582.9938,365.50153,583.0165C365.3975,583.1761,365.30505,583.5273,365.30673,583.7624C365.3072,583.83044,365.30145,583.8944,365.29327,583.9027C365.28302,583.911,365.27722,583.96674,365.27765,584.02454C365.27808,584.0843,365.27466,584.1895,365.2731,584.2617C365.26984,584.3834,365.26782,584.39166,365.2245,584.38574C365.1935,584.3819,365.17484,584.36346,365.17047,584.3326C365.1662,584.3078,365.15573,584.2873,365.14542,584.28735C365.1351,584.2875,365.11432,584.2649,365.09973,584.2382C365.05585,584.16016,364.62637,583.794,364.37354,583.6205C364.15805,583.4714,364.13934,583.45294,364.13684,583.3912C364.13654,583.34576,364.1135,583.2964,364.06567,583.2411L363.997,583.15704L363.81564,583.17267C363.6281,583.1885,363.54962,583.1705,363.5492,583.11066C363.5489,583.0674,363.3849,582.91797,363.33746,582.9183C363.31683,582.91846,363.30032,582.9124,363.30023,582.9021C363.3001,582.88354,363.14923,582.83716,363.0853,582.8376C363.05643,582.83777,363.02762,582.84625,363.0215,582.85864C362.99908,582.89386,362.93298,582.88196,362.8935,582.8327C362.83734,582.76715,362.72958,582.6957,362.68628,582.696C362.66565,582.6961,362.63068,582.7108,362.6102,582.7275C362.58762,582.74414,362.54852,582.75885,362.5238,582.75903C362.48254,582.7593,362.47626,582.74493,362.4632,582.64606C362.4414,582.4812,362.39383,582.4609,362.28534,582.571C362.2075,582.6478,362.1972,582.652,362.06113,582.655C361.92914,582.658,361.91678,582.656,361.9165,582.6189C361.91635,582.5962,361.8975,582.55927,361.87466,582.5367C361.85184,582.5142,361.833,582.47723,361.8329,582.4566C361.8327,582.4318,361.81403,582.4134,361.78094,582.4054C361.7479,582.3974,361.7292,582.37897,361.729,582.3522C361.72885,582.32947,361.7205,582.311,361.71017,582.31104C361.69986,582.3111,361.67072,582.2721,361.6456,582.2228C361.60376,582.14056,361.60153,582.1117,361.60684,581.69305C361.61038,581.3157,361.6159,581.2228,361.65405,581.074C361.68018,580.97687,361.70837,580.88184,361.71857,580.8632C361.73077,580.84247,361.73883,580.81354,361.7387,580.795C361.7386,580.7785,361.75476,580.73303,361.773,580.69165C361.80557,580.6234,361.8117,580.6192,361.90247,580.6206C362.00354,580.6241,362.17004,580.54865,362.16968,580.49713C362.1696,580.48474,362.17572,580.4723,362.18604,580.4722C362.2087,580.47205,362.25092,580.315,362.25027,580.2263C362.24997,580.18097,362.25998,580.13763,362.27023,580.13135C362.3031,580.1105,362.28946,579.93115,362.24982,579.8655C362.21432,579.8059,362.18738,579.7834,362.11917,579.76324C362.0882,579.7552,362.0839,579.73254,362.09338,579.6129C362.09903,579.53656,362.1128,579.4457,362.12085,579.4147C362.14105,579.3527,362.1057,579.023,362.07437,578.9634C362.06393,578.94495,362.05542,578.90576,362.0552,578.8769C362.05502,578.848,362.0298,578.78015,362.00055,578.72675C361.9692,578.67334,361.9316,578.60345,361.9149,578.57263C361.8982,578.5418,361.87735,578.5111,361.86493,578.50494C361.85455,578.49677,361.84613,578.4721,361.84595,578.4473C361.8458,578.4226,361.82907,578.3918,361.80627,578.3775C361.78558,578.3653,361.7626,578.3263,361.75616,578.2912C361.74768,578.2562,361.73102,578.2275,361.7145,578.2276C361.70007,578.2277,361.6523,578.1827,361.6086,578.12524C361.56696,578.0698,361.51297,578.0187,361.4923,578.0126C361.46957,578.0066,361.44675,577.982,361.4404,577.9614C361.432,577.9388,361.38837,577.89374,361.3407,577.8611C361.29303,577.82837,361.235,577.78345,361.21417,577.75885C361.19135,577.7363,361.16232,577.7159,361.1458,577.716C361.13138,577.7161,361.11273,577.70184,361.10645,577.68536C361.09805,577.66895,361.08148,577.65454,361.06497,577.65466C361.0361,577.6549,361.0175,577.6468,360.89746,577.5858C360.86224,577.5675,360.81265,577.55334,360.78998,577.5535C360.76523,577.5537,360.7301,577.5457,360.7094,577.5355C360.66803,577.5152,360.46152,577.4775,360.44922,577.48785 Z M357.0603,586.225C357.1411,586.278,357.21802,586.3641,357.22034,586.4012C357.22046,586.41565,357.23938,586.46704,357.26447,586.51843C357.30002,586.5904,357.30652,586.6316,357.29468,586.70795C357.24573,587.08154,357.27435,587.3392,357.4005,587.6827C357.45728,587.8349,357.46585,587.88226,357.46283,588.039C357.4586,588.3195,357.39407,588.82526,357.33377,589.0443C357.28348,589.22614,357.2418,589.4553,357.18878,589.8393C357.18094,589.895,357.17352,590.0168,357.17212,590.1075C357.16913,590.26843,357.14578,590.47064,357.11172,590.6132L357.0937,590.68555L356.68326,590.6822C356.45636,590.6797,356.25214,590.6708,356.2294,590.66064C356.20667,590.6526,356.15494,590.63025,356.11148,590.612C356.07013,590.5937,356.02054,590.5796,355.99786,590.5798C355.97723,590.5799,355.93365,590.541,355.8982,590.4877C355.86487,590.4384,355.8295,590.3954,355.82126,590.39545C355.81094,590.3955,355.80463,590.37695,355.80444,590.3543C355.8043,590.3316,355.79593,590.3131,355.7856,590.3132C355.7753,590.31323,355.7607,590.29065,355.75433,590.2618C355.74588,590.233,355.73126,590.21045,355.72095,590.2105C355.7086,590.21063,355.70026,590.1983,355.70016,590.18384C355.70007,590.1715,355.67087,590.1263,355.6376,590.08734C355.60434,590.04834,355.5752,590.0094,355.57513,590.00116C355.57507,589.9929,355.5626,589.9744,355.54803,589.96014C355.46494,589.874,355.3671,589.74066,355.36688,589.7098C355.36673,589.69116,355.35422,589.6707,355.33765,589.6646C355.2901,589.64636,355.22437,589.3932,355.1956,589.11084C355.1822,588.96246,355.15836,588.80176,355.14355,588.7503C355.10556,588.62067,355.0404,588.44995,355.0134,588.4171C354.99048,588.3884,354.94394,588.21967,354.9435,588.15985C354.9432,588.11444,355.1805,587.8426,355.2197,587.84235C355.23413,587.8422,355.27524,587.8193,355.308,587.79016C355.34286,587.76105,355.3757,587.73816,355.3819,587.7381C355.39426,587.73804,355.5133,587.6588,355.53787,587.63385C355.54404,587.6276,355.62598,587.5487,355.72226,587.45734C355.81854,587.3659,355.9291,587.24963,355.97,587.19775C356.01086,587.1459,356.1705,586.97363,356.32614,586.8138C356.4797,586.65594,356.6209,586.5023,356.63724,586.4775C356.6556,586.45056,356.67813,586.42975,356.69257,586.4296C356.7194,586.42737,356.88947,586.2695,356.88928,586.2468C356.8891,586.22,356.93625,586.1804,356.96716,586.18024C356.98367,586.1801,357.0251,586.20044,357.0603,586.225 Z M364.09503,588.011C364.1593,588.06006,364.21146,588.1463,364.23477,588.2327C364.24115,588.2616,364.25586,588.30273,364.26633,588.3254C364.27682,588.348,364.32498,588.45483,364.3732,588.56177C364.4193,588.66864,364.4674,588.76733,364.4778,588.77966C364.50485,588.8104,364.60104,588.99945,364.6012,589.0201C364.6014,589.051,364.69128,589.22156,364.7015,589.20905C364.71585,589.1946,364.85202,589.4988,364.8524,589.5483C364.85254,589.571,364.84442,589.5896,364.8341,589.58966C364.8238,589.5898,364.80948,589.6063,364.8034,589.62494C364.79132,589.6622,364.7463,589.71405,364.468,590.0233C364.2429,590.27234,364.16504,590.3451,364.06024,590.39734C364.00677,590.4225,363.94308,590.45593,363.9205,590.46844C363.7705,590.55,363.74786,590.5542,363.4283,590.573C363.24692,590.5825,363.09225,590.5857,363.0819,590.5795C363.05292,590.56116,363.06198,590.09296,363.09232,590.0041C363.1348,589.8862,363.13007,589.50885,363.08356,589.34625C363.03067,589.159,363.02887,588.60626,363.07922,588.43677L363.11755,588.3128L363.31894,588.2083C363.43195,588.1518,363.5223,588.09753,363.52225,588.0913C363.52222,588.08307,363.54895,588.07056,363.5798,588.06213C363.6107,588.05566,363.67444,588.02637,363.71753,587.9972C363.78735,587.9534,363.81824,587.94696,363.9173,587.9545C364.00186,587.96014,364.05356,587.97626,364.09503,588.011 Z M369.98276,588.28107C370.06793,588.3651,370.26544,588.58844,370.30917,588.65C370.43832,588.8368,370.78726,589.18494,370.94885,589.291C371.01102,589.33185,371.08566,589.38696,371.11676,589.41565C371.14792,589.4443,371.20178,589.4811,371.23697,589.49524C371.2721,589.50946,371.33643,589.5668,371.38013,589.62006C371.42587,589.67334,371.5069,589.7614,371.56088,589.8126C371.6149,589.8659,371.66064,589.9171,371.6607,589.9295C371.6608,589.9398,371.68158,589.96234,371.7085,589.9807C371.74786,590.00726,371.7542,590.02783,371.753,590.1495C371.75354,590.22577,371.74368,590.2939,371.73138,590.30023C371.70676,590.319,371.4909,590.7123,371.47073,590.77844C371.4627,590.8074,371.4383,590.85706,371.4179,590.8922C371.3955,590.9274,371.3793,590.97296,371.37943,590.9915C371.37955,591.0101,371.35724,591.06177,371.32867,591.1032C371.30008,591.14465,371.27774,591.19226,371.27786,591.2067C371.27795,591.2232,371.26978,591.23566,371.25742,591.2357C371.2471,591.2358,371.2226,591.2689,371.2043,591.3103C371.17587,591.37036,371.05746,591.5423,370.9736,591.6419C370.96338,591.65436,370.94098,591.6937,370.92267,591.7268C370.9064,591.762,370.8798,591.79517,370.86542,591.8015C370.84897,591.80566,370.8101,591.8514,370.77744,591.90106C370.74274,591.9508,370.69574,592.013,370.67117,592.04C370.64456,592.06903,370.6242,592.1043,370.6243,592.1187C370.62463,592.16614,370.50943,592.21027,370.38364,592.2111C370.2393,592.21216,370.05103,592.1269,369.914,591.99786C369.86624,591.9508,369.78955,591.8915,369.744,591.86505C369.7005,591.8406,369.62997,591.7833,369.5884,591.7382C369.54684,591.69525,369.5033,591.66046,369.49298,591.6605C369.45587,591.6608,369.33994,591.3028,369.3391,591.1873C369.3389,591.15845,369.32626,591.11725,369.3096,591.0947C369.27835,591.04755,369.2197,590.3323,369.23956,590.229C369.2476,590.1939,369.25296,590.0784,369.25427,589.97107C369.25894,589.7546,369.3345,589.35187,369.3875,589.26904C369.40588,589.24,369.44012,589.12427,369.46613,589.0106C369.49008,588.89703,369.5283,588.7566,369.54852,588.70074C369.6031,588.5436,369.62927,588.4527,369.62903,588.4156C369.6289,588.39703,369.66772,588.3452,369.7148,588.2974C369.82336,588.1915,369.88727,588.18896,369.98276,588.28107 Z M365.1949,591.037C365.2136,591.0616,365.24942,591.1665,365.2728,591.2674C365.29828,591.37036,365.3384,591.50824,365.36157,591.57404C365.3847,591.64197,365.40384,591.7202,365.40405,591.7491C365.40628,591.7779,365.419,591.82526,365.4357,591.854C365.46912,591.9136,365.47598,592.0105,365.4493,592.02924C365.43698,592.03546,365.42288,592.0851,365.4171,592.13873C365.40332,592.2337,365.3411,592.47754,365.30463,592.57263C365.2945,592.5995,365.28656,592.6429,365.28674,592.6697C365.28696,592.6965,365.2789,592.7254,365.26657,592.7317C365.25632,592.7379,365.24625,592.77313,365.2465,592.8061C365.2467,592.8391,365.23474,592.8969,365.22055,592.93414C365.20435,592.9714,365.18015,593.04987,365.16815,593.1077C365.15414,593.16766,365.13385,593.2173,365.12357,593.21735C365.11325,593.2174,365.10522,593.2504,365.1055,593.2896C365.10577,593.3288,365.09787,593.37836,365.0877,593.39905C365.0796,593.41766,365.0471,593.48596,365.01865,593.54803C364.98813,593.6101,364.92514,593.7446,364.8764,593.8481C364.8276,593.9495,364.78094,594.057,364.77286,594.086C364.7507,594.1604,364.66043,594.51776,364.64038,594.6025C364.62238,594.68304,364.50327,595.0489,364.47687,595.1027C364.4667,595.1234,364.45868,595.1585,364.45886,595.1812C364.45898,595.20386,364.45294,595.2225,364.44263,595.22253C364.4344,595.2226,364.4101,595.28467,364.38998,595.3611C364.36786,595.43964,364.34564,595.5099,364.3375,595.52234C364.31503,595.5534,364.29544,595.702,364.28665,595.9187C364.27753,596.0858,364.27148,596.11053,364.2385,596.1108C364.1993,596.1111,364.1343,595.95276,364.13364,595.8599C364.13672,595.7094,364.09497,595.3446,364.07632,595.33234C364.05148,595.3181,364.045,595.28107,364.00385,594.9988C363.99295,594.91437,363.96732,594.7887,363.94827,594.7208C363.92923,594.6529,363.90567,594.5231,363.89676,594.4324C363.87485,594.249,363.8492,594.1213,363.8005,593.9381C363.76666,593.82086,363.74747,593.7323,363.7068,593.516C363.69818,593.4645,363.67285,593.3822,363.65186,593.33075C363.6141,593.2424,363.60733,593.1599,363.61832,592.95776C363.6238,592.8628,363.56253,592.6508,363.52954,592.65106C363.52127,592.6511,363.51294,592.6347,363.5128,592.6141C363.51263,592.59344,363.49368,592.5379,363.47064,592.49066C363.43512,592.4208,363.42853,592.3651,363.42703,592.15063C363.42548,591.93,363.42932,591.8908,363.4602,591.88025C363.4787,591.8719,363.6126,591.8524,363.75684,591.83484C364.02884,591.8041,364.18738,591.76587,364.1872,591.7349C364.18713,591.7267,364.1974,591.7183,364.20767,591.71826C364.24274,591.718,364.45825,591.57214,364.52173,591.5078C364.55243,591.47455,364.5769,591.43524,364.5768,591.4208C364.57648,591.37335,364.8695,591.1053,364.98666,591.0467C365.1202,590.9777,365.15115,590.9775,365.1949,591.037 Z M364.40723,598.40295C364.4277,598.67914,364.45447,598.96564,364.46533,599.0419C364.4782,599.11804,364.48724,599.2273,364.4876,599.28296C364.48804,599.3407,364.49707,599.44995,364.50995,599.5262C364.5208,599.6045,364.54694,599.7961,364.56454,599.9547C364.58423,600.1134,364.6039,600.2762,364.61038,600.3153C364.6319,600.4472,364.6808,600.9438,364.73016,601.5127C364.75253,601.76624,364.75333,601.87964,364.7359,602.0386C364.69894,602.3564,364.69098,602.39764,364.67252,602.41016C364.66223,602.4165,364.65417,602.4392,364.65433,602.4619C364.6545,602.48663,364.64017,602.50116,364.61334,602.50134C364.58655,602.5015,364.57202,602.4872,364.57184,602.46454C364.5716,602.42944,364.53592,602.341,364.48578,602.2507C364.4753,602.2301,364.46686,602.1992,364.46674,602.18274C364.46664,602.16626,364.45816,602.1354,364.44772,602.1148C364.43726,602.0963,364.42047,602.05725,364.40793,602.0285C364.3974,601.9997,364.36392,601.92773,364.33255,601.8681C364.30325,601.80646,364.27805,601.74475,364.27795,601.7283C364.27783,601.7118,364.26938,601.6829,364.2589,601.6624C364.21085,601.56995,364.13098,601.356,364.13068,601.3148C364.1305,601.29004,364.12207,601.2633,364.10965,601.2572C364.0993,601.25104,364.08875,601.21405,364.08847,601.17487C364.0882,601.1357,364.07956,601.08417,364.0691,601.05743C364.0481,601.00397,364.00897,600.72375,363.98856,600.45996C363.97723,600.3157,363.97906,600.2785,364.00168,600.2701C364.01816,600.26587,364.08197,600.251,364.14377,600.23816C364.2055,600.22327,364.29193,600.19586,364.3351,600.177L364.41324,600.14343L364.40192,599.9992C364.39722,599.91876,364.3806,599.6075,364.36615,599.3065C364.35162,599.00555,364.3306,598.653,364.31732,598.52313C364.3061,598.3933,364.29443,598.1996,364.2937,598.09436C364.2925,597.9253,364.29648,597.9046,364.32947,597.90436C364.36453,597.9041,364.37103,597.9474,364.40723,598.40295 Z"/> </g> </g> </svg>